<?xml version="1.0" standalone="no"?>
<svg viewBox="0 0 200 200" xmlns="http://www.w3.org/2000/svg">
  <path fill="#CCF919" d="M21.7,-42.3C27,-34.4,29.4,-26.4,33.1,-19.3C36.7,-12.3,41.6,-6.1,44.9,1.9C48.2,9.9,49.8,19.8,50.2,33.9C50.5,47.9,49.6,66.1,41,71.2C32.5,76.4,16.2,68.4,1.9,65C-12.3,61.6,-24.7,62.9,-29.2,55.4C-33.7,47.9,-30.3,31.8,-37.4,21.1C-44.5,10.4,-62,5.2,-71.1,-5.2C-80.2,-15.7,-80.8,-31.3,-72.8,-40.5C-64.9,-49.7,-48.3,-52.3,-34.7,-55.4C-21.2,-58.4,-10.6,-61.9,-1.2,-59.8C8.2,-57.7,16.3,-50.1,21.7,-42.3Z" transform="translate(100 100)" />
</svg>
