<?xml version="1.0" standalone="no"?>
<svg viewBox="0 0 200 200" xmlns="http://www.w3.org/2000/svg">
  <path fill="#F0379A" d="M27.1,-43.9C37.9,-35.3,51.2,-32.4,62.1,-23.9C73,-15.3,81.5,-1.2,80.7,12.4C80,26,70.1,39.1,58.6,48.8C47.1,58.4,34,64.7,20.6,67.5C7.1,70.2,-6.5,69.6,-17,63.8C-27.5,58.1,-34.8,47.3,-44.2,37.7C-53.5,28,-64.9,19.5,-70.9,7.5C-76.9,-4.6,-77.5,-20.1,-68.6,-27.9C-59.7,-35.7,-41.3,-35.6,-28.3,-43.2C-15.3,-50.7,-7.6,-65.8,0.3,-66.2C8.2,-66.7,16.4,-52.5,27.1,-43.9Z" transform="translate(100 100)" />
</svg>
