<?xml version="1.0" standalone="no"?>
<svg viewBox="0 0 200 200" xmlns="http://www.w3.org/2000/svg">
  <path fill="#F0379A" d="M45.7,-63.9C55.9,-55.4,58.5,-37.7,64.7,-20.6C70.8,-3.5,80.3,12.8,76.8,25.3C73.2,37.8,56.6,46.3,41.6,56.3C26.6,66.2,13.3,77.5,1.3,75.7C-10.7,73.9,-21.3,59,-35.7,48.8C-50.1,38.7,-68.2,33.4,-77.4,21.3C-86.6,9.2,-86.9,-9.6,-79.3,-23.5C-71.7,-37.5,-56,-46.5,-41.5,-53.5C-26.9,-60.6,-13.5,-65.5,2.1,-68.4C17.7,-71.3,35.5,-72.3,45.7,-63.9Z" transform="translate(100 100)" />
</svg>
